<svg width="155" height="211" viewBox="0 0 155 211" fill="none" xmlns="http://www.w3.org/2000/svg">
<ellipse cx="24.5" cy="19.5" rx="24.5" ry="19.5" fill="#0A4D92"/>
<ellipse cx="77.5" cy="19.5" rx="24.5" ry="19.5" fill="#0A4D92"/>
<ellipse cx="130.5" cy="19.5" rx="24.5" ry="19.5" fill="#0A4D92"/>
<ellipse cx="77.5" cy="62.5" rx="24.5" ry="19.5" fill="#0A4D92"/>
<ellipse cx="24.5" cy="62.5" rx="24.5" ry="19.5" fill="#0A4D92"/>
<ellipse cx="77.5" cy="105.5" rx="24.5" ry="19.5" fill="#0A4D92"/>
<ellipse cx="130.5" cy="62.5" rx="24.5" ry="19.5" fill="#0A4D92"/>
<ellipse cx="77.5" cy="148.5" rx="24.5" ry="19.5" fill="#0A4D92"/>
<ellipse cx="77.5" cy="191.5" rx="24.5" ry="19.5" fill="#0A4D92"/>
<ellipse cx="24.5" cy="105.5" rx="24.5" ry="19.5" fill="#0A4D92"/>
<ellipse cx="24.5" cy="148.5" rx="24.5" ry="19.5" fill="#0A4D92"/>
<ellipse cx="130.5" cy="148.5" rx="24.5" ry="19.5" fill="#0A4D92"/>
<ellipse cx="130.5" cy="105.5" rx="24.5" ry="19.5" fill="#0A4D92"/>
<ellipse cx="24.5" cy="191.5" rx="24.5" ry="19.5" fill="#0A4D92"/>
<ellipse cx="130.5" cy="191.5" rx="24.5" ry="19.5" fill="#0A4D92"/>
</svg>
