<svg width="70" height="124" viewBox="0 0 70 124" fill="none" xmlns="http://www.w3.org/2000/svg">
<rect x="0.5" y="0.5" width="15" height="15" stroke="#0A4D92"/>
<rect x="18.5" y="0.5" width="15" height="15" stroke="#0A4D92"/>
<rect x="36.5" y="0.5" width="15" height="15" stroke="#0A4D92"/>
<rect x="54.5" y="0.5" width="15" height="15" stroke="#0A4D92"/>
<rect x="0.5" y="18.5" width="15" height="15" stroke="#0A4D92"/>
<rect x="18.5" y="18.5" width="15" height="15" stroke="#0A4D92"/>
<rect x="36.5" y="18.5" width="15" height="15" stroke="#0A4D92"/>
<rect x="54.5" y="18.5" width="15" height="15" stroke="#0A4D92"/>
<rect x="0.5" y="36.5" width="15" height="15" stroke="#0A4D92"/>
<rect x="18.5" y="36.5" width="15" height="15" stroke="#0A4D92"/>
<rect x="36.5" y="36.5" width="15" height="15" stroke="#0A4D92"/>
<rect x="54.5" y="36.5" width="15" height="15" stroke="#0A4D92"/>
<rect x="0.5" y="54.5" width="15" height="15" stroke="#0A4D92"/>
<rect x="18.5" y="54.5" width="15" height="15" stroke="#0A4D92"/>
<rect x="36.5" y="54.5" width="15" height="15" stroke="#0A4D92"/>
<rect x="54.5" y="54.5" width="15" height="15" stroke="#0A4D92"/>
<rect x="0.5" y="72.5" width="15" height="15" stroke="#0A4D92"/>
<rect x="18.5" y="72.5" width="15" height="15" stroke="#0A4D92"/>
<rect x="36.5" y="72.5" width="15" height="15" stroke="#0A4D92"/>
<rect x="54.5" y="72.5" width="15" height="15" stroke="#0A4D92"/>
<rect x="0.5" y="90.5" width="15" height="15" stroke="#0A4D92"/>
<rect x="18.5" y="90.5" width="15" height="15" stroke="#0A4D92"/>
<rect x="36.5" y="90.5" width="15" height="15" stroke="#0A4D92"/>
<rect x="54.5" y="90.5" width="15" height="15" stroke="#0A4D92"/>
<rect x="0.5" y="108.5" width="15" height="15" stroke="#0A4D92"/>
<rect x="18.5" y="108.5" width="15" height="15" stroke="#0A4D92"/>
<rect x="36.5" y="108.5" width="15" height="15" stroke="#0A4D92"/>
<rect x="54.5" y="108.5" width="15" height="15" stroke="#0A4D92"/>
</svg>
